<svg xmlns="http://www.w3.org/2000/svg" width="333" height="379" fill="none"><path fill="url(#a)" d="M2.912 268.751c-1.9-18.264-.844-64.551-.844-64.551l164.705 94.69 133.463-76.468c.409-.234 15.673-8.075 22.323-5.7 6.65 2.375 6.078 4.991 8.074 11.399 0 0 3.325 34.672-1.425 48.921-4.749 14.249-9.248 17.845-17.098 22.798 0 0-119.214 70.294-123.964 72.668-4.75 2.375-10.449 6.175-21.373 6.175-10.924 0-13.884-2.546-21.848-6.175 0 0-104.877-58.798-119.215-69.344-14.337-10.545-20.898-16.148-22.798-34.413Z"/><path fill="url(#b)" d="M1.175 108.558c-.92 6.331 0 72.728 0 72.728l164.373-94.018s154.802 97.35 157.7 97.35c2.898 0 9.518-25.695 9.518-48.883 0-23.189 0-35.455-7.405-43.539-7.404-8.084-134.98-87.44-144.925-89.96-9.946-2.52-19.96-1.99-27.305 0-7.344 1.989-134.346 76.887-134.346 76.887-12.731 10.727-16.69 23.104-17.61 29.435Z"/><path fill="url(#c)" d="M165.716 280.614 14.563 191.489l82.639-46.906 68.432 40.129 82.058-46.099s72.887 43.683 75.552 46.309c2.665 2.626-102.905 65.945-157.528 95.692Z"/><path fill="url(#d)" d="m326.516 93.194-78.803 45.424 75.559 46.581c1.437-2.115 3.216-2.246 6.579-13.497 3.363-11.25 3.698-57.819 2.296-63.924-1.402-6.104-2.263-9.32-5.631-14.584Z"/><defs><linearGradient id="a" x1="2.068" x2="331.689" y1="268.967" y2="270.392" gradientUnits="userSpaceOnUse"><stop stop-color="#0774D6"/><stop offset=".347" stop-color="#1D507E"/><stop offset=".495" stop-color="#1E476C"/><stop offset="1" stop-color="#083054"/></linearGradient><linearGradient id="b" x1=".849" x2="320.156" y1="125.481" y2="86.203" gradientUnits="userSpaceOnUse"><stop stop-color="#2182D9"/><stop offset=".281" stop-color="#0767BD"/><stop offset=".542" stop-color="#075EAB"/><stop offset=".719" stop-color="#073C6B"/><stop offset="1" stop-color="#063154"/></linearGradient><linearGradient id="c" x1="18.145" x2="323.294" y1="191.106" y2="186.393" gradientUnits="userSpaceOnUse"><stop stop-color="#113650"/><stop offset=".242" stop-color="#103A5A"/><stop offset=".49" stop-color="#1B4E79"/><stop offset=".953" stop-color="#2B81CD"/></linearGradient><linearGradient id="d" x1="247.713" x2="332.926" y1="139.292" y2="141.93" gradientUnits="userSpaceOnUse"><stop stop-color="#095FAC"/><stop offset=".406" stop-color="#0863B3"/><stop offset="1" stop-color="#0768BE"/></linearGradient></defs></svg>